<svg width="128" height="128" viewBox="0 0 128 128" fill="none" xmlns="http://www.w3.org/2000/svg">
<path d="M98 52H124V48H100V28C100 26.894 99.106 26 98 26C94.084 26 90.544 27.62 88 30.222V14C88 8.486 83.514 4 78 4H26C20.486 4 16 8.486 16 14V49.112C14.818 48.424 13.464 48 12 48C7.588 48 4 51.588 4 56C4 58.402 5.084 60.532 6.764 62C5.084 63.468 4 65.598 4 68C4 70.402 5.084 72.532 6.764 74C5.084 75.468 4 77.598 4 80C4 82.402 5.084 84.532 6.764 86C5.084 87.468 4 89.598 4 92C4 96.412 7.588 100 12 100C13.464 100 14.818 99.576 16 98.888V114C16 119.514 20.486 124 26 124H78C83.514 124 88 119.514 88 114V100H124V96H88V40C88 35.17 91.442 31.13 96 30.202V50C96 51.106 96.894 52 98 52ZM26 8H78C81.308 8 84 10.692 84 14V16H20V14C20 10.692 22.692 8 26 8ZM8 56C8 53.794 9.794 52 12 52C14.206 52 16 53.794 16 56C16 58.206 14.206 60 12 60C9.794 60 8 58.206 8 56ZM8 68C8 65.794 9.794 64 12 64C14.206 64 16 65.794 16 68C16 70.206 14.206 72 12 72C9.794 72 8 70.206 8 68ZM8 80C8 77.794 9.794 76 12 76C14.206 76 16 77.794 16 80C16 82.206 14.206 84 12 84C9.794 84 8 82.206 8 80ZM12 96C9.794 96 8 94.206 8 92C8 89.794 9.794 88 12 88C14.206 88 16 89.794 16 92C16 94.206 14.206 96 12 96ZM78 120H26C22.692 120 20 117.308 20 114V112H84V114C84 117.308 81.308 120 78 120ZM84 108H20V20H84V40V108Z" fill="#0070FF"/>
<path d="M26 48H46C47.106 48 48 47.106 48 46V30C48 28.894 47.106 28 46 28H26C24.894 28 24 28.894 24 30V46C24 47.106 24.894 48 26 48ZM28 32H44V44H28V32Z" fill="#0070FF"/>
<path d="M78 54H58C56.894 54 56 54.894 56 56V72C56 73.106 56.894 74 58 74H78C79.106 74 80 73.106 80 72V56C80 54.894 79.106 54 78 54ZM76 70H60V58H76V70Z" fill="#0070FF"/>
<path d="M80 28H52V32H80V28Z" fill="#0070FF"/>
<path d="M80 36H52V40H80V36Z" fill="#0070FF"/>
<path d="M72 44H52V48H72V44Z" fill="#0070FF"/>
<path d="M46 80H26C24.894 80 24 80.894 24 82V98C24 99.106 24.894 100 26 100H46C47.106 100 48 99.106 48 98V82C48 80.894 47.106 80 46 80ZM44 96H28V84H44V96Z" fill="#0070FF"/>
<path d="M80 80H52V84H80V80Z" fill="#0070FF"/>
<path d="M80 88H52V92H80V88Z" fill="#0070FF"/>
<path d="M56 96H52V100H56V96Z" fill="#0070FF"/>
<path d="M52 54H24V58H52V54Z" fill="#0070FF"/>
<path d="M52 62H24V66H52V62Z" fill="#0070FF"/>
<path d="M52 70H24V74H52V70Z" fill="#0070FF"/>
<path d="M80 44H76V48H80V44Z" fill="#0070FF"/>
<path d="M64 96H60V100H64V96Z" fill="#0070FF"/>
<path d="M72 96H68V100H72V96Z" fill="#0070FF"/>
<path d="M80 96H76V100H80V96Z" fill="#0070FF"/>
</svg>
