<svg width="128" height="128" viewBox="0 0 128 128" fill="none" xmlns="http://www.w3.org/2000/svg">
<path d="M58.721 128C58.6814 128 58.6411 127.999 58.6002 127.995L40.9098 126.354C40.2535 126.293 39.7472 125.748 39.7316 125.086L39.4453 112.813C36.017 111.167 32.9348 108.977 30.2635 106.29L18.6603 110.093C18.0351 110.299 17.3535 110 17.0783 109.399L9.65441 93.1891C9.37916 92.5878 9.59598 91.8737 10.1588 91.5301L20.5851 85.1515C20.2981 81.3574 20.6487 77.5841 21.6302 73.9113L12.5387 65.7074C12.0485 65.2646 11.9661 64.5231 12.3471 63.9825L22.6163 49.4203C22.9974 48.881 23.7205 48.7128 24.2983 49.0303L35.0128 54.912C36.5701 53.8457 38.2184 52.9099 39.9205 52.1228C41.6226 51.3363 43.4033 50.6894 45.2222 50.1938L47.7475 38.1932C47.8832 37.5456 48.4713 37.1015 49.138 37.1641L66.8278 38.8055C67.4841 38.8662 67.9911 39.412 68.006 40.0733L68.2916 52.3478C71.727 54.0009 74.8093 56.1902 77.4734 58.8691L89.0773 55.0665C89.7024 54.8578 90.3841 55.1598 90.66 55.761L98.0799 71.964C98.3552 72.5653 98.1384 73.2781 97.5762 73.6231L87.1512 80.0003C87.4427 83.7749 87.0921 87.5507 86.1074 91.2477L95.1989 99.4522C95.6897 99.895 95.7722 100.636 95.3911 101.177L85.1206 115.739C84.7402 116.279 84.0177 116.449 83.4393 116.129L72.7248 110.248C71.1662 111.314 69.5186 112.25 67.8165 113.036C66.1137 113.823 64.3343 114.47 62.5154 114.966L59.9901 126.966C59.8622 127.574 59.3293 128 58.721 128ZM42.3003 123.864L57.6882 125.291L60.1414 113.635C60.2433 113.145 60.6172 112.757 61.1015 112.638C63.036 112.162 64.9296 111.498 66.7304 110.666C68.5292 109.835 70.2632 108.821 71.8835 107.655C72.2892 107.363 72.8254 107.331 73.2623 107.571L83.6678 113.284L92.6023 100.617L83.7704 92.6472C83.3984 92.3113 83.2517 91.7909 83.3925 91.309C84.5292 87.417 84.8993 83.424 84.4929 79.4421C84.4423 78.9412 84.6818 78.4567 85.1096 78.1945L95.2372 71.9986L88.7839 57.9066L77.5111 61.6003C77.034 61.7561 76.5127 61.6238 76.168 61.2592C73.422 58.3579 70.1625 56.0428 66.4805 54.3785C66.0248 54.1718 65.7274 53.7212 65.7158 53.2197L65.4373 41.296L50.0488 39.8685L47.5969 51.5248C47.4937 52.0145 47.1204 52.4025 46.6361 52.5212C44.7009 52.9979 42.8067 53.6612 41.0065 54.4933C39.2077 55.3248 37.4738 56.3375 35.8541 57.5042C35.4484 57.7964 34.9115 57.829 34.4746 57.589L24.0685 51.8756L15.1347 64.5434L23.9659 72.5131C24.3379 72.849 24.4853 73.3694 24.3437 73.852C23.2109 77.7139 22.8403 81.705 23.2408 85.7143C23.2908 86.2139 23.0513 86.6971 22.6248 86.9586L12.4965 93.1539L18.9537 107.253L30.2265 103.559C30.7023 103.402 31.2249 103.537 31.5696 103.9C34.324 106.81 37.5828 109.125 41.2545 110.78C41.7109 110.987 42.0095 111.438 42.0218 111.94L42.3003 123.864ZM53.9639 101.551C47.5787 101.551 41.337 98.2679 37.875 92.6804C34.7421 87.6225 34.115 81.542 36.156 75.9981C38.1969 70.455 42.61 66.248 48.2668 64.4553C56.3184 61.9022 65.4016 65.2777 69.8639 72.4792C72.9975 77.5372 73.6239 83.617 71.5829 89.1609C69.5419 94.704 65.1283 98.9116 59.4734 100.704C57.6674 101.277 55.8088 101.551 53.9639 101.551ZM40.0795 91.3025C43.9252 97.5082 51.7509 100.417 58.6905 98.2171C63.5755 96.6682 67.3867 93.0371 69.1472 88.2557C70.9071 83.4736 70.3651 78.2258 67.6574 73.8572C63.8137 67.6508 55.9867 64.7455 49.0465 66.9426C44.1628 68.4914 40.3509 72.1218 38.591 76.9033C36.8305 81.6854 37.3732 86.9338 40.0795 91.3025Z" fill="#000"/>
<path d="M98.657 56.5376C98.2013 56.5376 97.7618 56.2957 97.5262 55.8757L93.9493 49.5193C91.7473 49.5826 89.5771 49.3145 87.4699 48.7048L82.4467 53.9675C81.9903 54.4449 81.2496 54.5036 80.7264 54.1038L71.9594 47.4286C71.4342 47.0288 71.2914 46.2971 71.6257 45.7271L75.313 39.4451C74.1607 37.5676 73.3123 35.5414 72.7845 33.4018L65.7268 31.6606C65.086 31.5027 64.666 30.8878 64.7478 30.2304L66.1241 19.2648C66.2065 18.612 66.7589 18.1235 67.4114 18.1235H67.4243L74.6859 18.19C75.2072 17.2236 75.7999 16.2962 76.4575 15.4263C77.1151 14.555 77.8428 13.7307 78.6277 12.9671L76.6016 5.96183C76.4179 5.32599 76.7373 4.65364 77.3449 4.39605L87.4829 0.102381C88.0918 -0.15456 88.7936 0.08673 89.1182 0.662566L92.6944 7.01894C94.9003 6.94916 97.0731 7.22436 99.1738 7.8328L104.196 2.57007C104.653 2.09205 105.394 2.03401 105.917 2.43312L114.68 9.10643C115.206 9.50619 115.349 10.2379 115.014 10.8079L111.327 17.0879C112.478 18.9556 113.326 20.9838 113.857 23.1352L120.916 24.877C121.556 25.0355 121.978 25.6498 121.895 26.3072L120.519 37.2728C120.437 37.9256 119.884 38.4141 119.231 38.4141H119.219L111.957 38.3476C111.436 39.3147 110.842 40.2414 110.186 41.1107C109.529 41.9806 108.802 42.8056 108.015 43.5705L110.04 50.5764C110.225 51.2116 109.905 51.884 109.298 52.1416L99.1601 56.4352C98.9959 56.505 98.8252 56.5376 98.657 56.5376ZM94.6854 46.8723C95.1509 46.8723 95.5839 47.124 95.815 47.5349L99.2166 53.5802L107.224 50.1891L105.298 43.5281C105.159 43.0475 105.306 42.5291 105.678 42.1939C106.574 41.3859 107.395 40.4911 108.115 39.5351H108.115C108.837 38.5791 109.472 37.5441 110.004 36.459C110.225 36.011 110.691 35.7005 111.181 35.7318L118.086 35.7951L119.173 27.1334L112.46 25.477C111.975 25.3577 111.601 24.9683 111.499 24.4766C111.001 22.0807 110.067 19.8504 108.725 17.8483C108.445 17.4309 108.429 16.8897 108.683 16.4567L112.19 10.4831L105.269 5.21383L100.492 10.219C100.146 10.5822 99.6223 10.7139 99.1471 10.5542C96.866 9.79639 94.477 9.49836 92.0453 9.66139C91.5538 9.69204 91.0728 9.43967 90.8268 9.00274L87.4258 2.95743L79.4177 6.34854L81.3438 13.0095C81.4833 13.4901 81.3353 14.0092 80.964 14.3437C80.0701 15.1498 79.2496 16.0439 78.527 17.0018C77.8058 17.9585 77.169 18.9935 76.6373 20.078C76.4185 20.524 75.9674 20.8058 75.4727 20.8058H75.461L68.5565 20.7431L67.4698 29.4042L74.1828 31.0606C74.6684 31.1799 75.0417 31.5699 75.1436 32.0623C75.6343 34.44 76.5672 36.6696 77.9162 38.6886C78.1947 39.1053 78.2102 39.6453 77.9564 40.0777L74.4509 46.0512L81.373 51.3231L86.1502 46.318C86.4962 45.956 87.0194 45.825 87.4946 45.9834C89.7855 46.7445 92.1758 47.0451 94.5952 46.8755C94.6251 46.8736 94.6562 46.8723 94.6854 46.8723ZM93.278 40.5003C91.2052 40.5003 89.1266 39.9805 87.2752 38.9071C83.9599 36.9872 81.7618 33.718 81.2438 29.9389C80.7258 26.1591 81.9631 22.4152 84.6383 19.6665C88.4489 15.7504 94.6439 14.8928 99.3666 17.6305C102.681 19.5504 104.879 22.8195 105.397 26.5987C105.915 30.3785 104.678 34.1217 102.003 36.8705C99.6873 39.2508 96.4895 40.5003 93.278 40.5003ZM93.3514 18.6374C90.8274 18.6374 88.3158 19.6202 86.4955 21.4905C84.3851 23.6582 83.4088 26.6085 83.8164 29.5829C84.2235 32.5579 85.9574 35.1325 88.5722 36.6474C92.2842 38.7982 97.151 38.1245 100.146 35.0465C102.256 32.8787 103.232 29.9291 102.825 26.9547C102.418 23.9797 100.684 21.4044 98.0695 19.8902C96.6135 19.0469 94.9808 18.6374 93.3514 18.6374Z" fill="#000"/>
</svg>
