<svg width="95" height="84" viewBox="0 0 95 84" fill="none" xmlns="http://www.w3.org/2000/svg">
<path d="M53.067 41.56C52.331 41.184 51.425 41.474 51.048 42.212L40.999 61.853C40.622 62.591 40.914 63.495 41.651 63.872C41.87 63.984 42.103 64.037 42.333 64.037C42.878 64.037 43.404 63.739 43.669 63.221L53.717 43.58C54.097 42.841 53.805 41.938 53.067 41.56Z" fill="#0070FF"/>
<path d="M63.582 40.8098C62.996 40.2248 62.047 40.2248 61.461 40.8098C60.875 41.3948 60.875 42.3458 61.461 42.9308L71.044 52.5108L61.461 62.0908C60.875 62.6758 60.875 63.6258 61.461 64.2118C61.754 64.5048 62.138 64.6508 62.522 64.6508C62.906 64.6508 63.29 64.5048 63.583 64.2118L74.228 53.5708C74.509 53.2898 74.667 52.9078 74.667 52.5098C74.667 52.1118 74.509 51.7308 74.228 51.4488L63.582 40.8098Z" fill="#0070FF"/>
<path d="M33.285 40.8111C32.7 40.2251 31.75 40.2251 31.164 40.8111L20.521 51.4511C20.24 51.7321 20.082 52.1141 20.082 52.5121C20.082 52.9101 20.24 53.2911 20.521 53.5731L31.164 64.2131C31.457 64.5061 31.841 64.6521 32.225 64.6521C32.609 64.6521 32.993 64.5061 33.286 64.2131C33.872 63.6271 33.872 62.6781 33.286 62.0921L23.705 52.5121L33.286 42.9321C33.871 42.3461 33.871 41.3971 33.285 40.8111Z" fill="#0070FF"/>
<path d="M93.248 0H1.5C0.671 0 0 0.671 0 1.5V81.673C0 82.501 0.671 83.173 1.5 83.173H93.248C94.076 83.173 94.748 82.501 94.748 81.673V1.5C94.748 0.671 94.076 0 93.248 0ZM91.748 3V21.862H3V3H91.748ZM3 80.173V24.862H91.748V80.173H3Z" fill="#0070FF"/>
<path d="M10.936 13.437H17.826C18.655 13.437 19.326 12.766 19.326 11.937C19.326 11.108 18.655 10.437 17.826 10.437H10.936C10.107 10.437 9.43604 11.108 9.43604 11.937C9.43604 12.766 10.107 13.437 10.936 13.437Z" fill="#0070FF"/>
<path d="M25.7 13.437H32.59C33.419 13.437 34.09 12.766 34.09 11.937C34.09 11.108 33.419 10.437 32.59 10.437H25.7C24.871 10.437 24.2 11.108 24.2 11.937C24.2 12.766 24.872 13.437 25.7 13.437Z" fill="#0070FF"/>
</svg>
