<svg width="128" height="128" viewBox="0 0 128 128" fill="none" xmlns="http://www.w3.org/2000/svg">
<path d="M71.691 63.9592C70.6967 63.3805 69.4727 63.8268 68.9634 64.9626L55.3877 95.1893C54.8784 96.3251 55.2729 97.7163 56.2685 98.2965C56.5644 98.4689 56.8791 98.5504 57.1899 98.5504C57.9261 98.5504 58.6367 98.0918 58.9947 97.2946L72.5691 67.0679C73.0825 65.9306 72.688 64.5409 71.691 63.9592Z" fill="#000"/>
<path d="M85.8962 62.8051C85.1046 61.9048 83.8225 61.9048 83.0309 62.8051C82.2392 63.7054 82.2392 65.1689 83.0309 66.0692L95.977 80.8125L83.0309 95.5557C82.2392 96.456 82.2392 97.918 83.0309 98.8199C83.4267 99.2708 83.9455 99.4955 84.4642 99.4955C84.983 99.4955 85.5018 99.2708 85.8976 98.8199L100.278 82.4438C100.658 82.0113 100.872 81.4235 100.872 80.8109C100.872 80.1984 100.658 79.6121 100.278 79.1781L85.8962 62.8051Z" fill="#000"/>
<path d="M44.9664 62.8067C44.1761 61.9049 42.8927 61.9049 42.1011 62.8067L27.7229 79.1813C27.3433 79.6137 27.1298 80.2016 27.1298 80.8141C27.1298 81.4266 27.3433 82.013 27.7229 82.447L42.1011 98.8215C42.4969 99.2724 43.0157 99.4971 43.5344 99.4971C44.0532 99.4971 44.572 99.2724 44.9678 98.8215C45.7595 97.9197 45.7595 96.4592 44.9678 95.5574L32.0243 80.8141L44.9678 66.0709C45.7581 65.1691 45.7581 63.7086 44.9664 62.8067Z" fill="#000"/>
<path d="M125.974 0H2.02643C0.906489 0 0 1.03264 0 2.30844V125.692C0 126.966 0.906489 128 2.02643 128H125.974C127.092 128 128 126.966 128 125.692V2.30844C128 1.03264 127.092 0 125.974 0ZM123.947 4.61688V33.6448H4.05286V4.61688H123.947ZM4.05286 123.383V38.2617H123.947V123.383H4.05286Z" fill="#000"/>
<path d="M14.774 20.6794H24.0821C25.202 20.6794 26.1085 19.6467 26.1085 18.3709C26.1085 17.0951 25.202 16.0625 24.0821 16.0625H14.774C13.6541 16.0625 12.7476 17.0951 12.7476 18.3709C12.7476 19.6467 13.6541 20.6794 14.774 20.6794Z" fill="#000"/>
<path d="M34.7195 20.6794H44.0275C45.1475 20.6794 46.054 19.6467 46.054 18.3709C46.054 17.0951 45.1475 16.0625 44.0275 16.0625H34.7195C33.5995 16.0625 32.693 17.0951 32.693 18.3709C32.693 19.6467 33.6009 20.6794 34.7195 20.6794Z" fill="#000"/>
</svg>
